<svg id="Layer_1" data-name="Layer 1" xmlns="http://www.w3.org/2000/svg" viewBox="0 0 601.47 484.82"><defs><style>.cls-1{fill:#d4a5cc;}.cls-2{fill:#81469b;}.cls-3{fill:#6f4d9f;}</style></defs><title>logo</title><path class="cls-1" d="M306.75,232.52c-93.2,0-168.75,72-168.75,160.73S213.55,554,306.75,554,475.5,482,475.5,393.25,400,232.52,306.75,232.52Zm0,283.56c-69.31,0-125.49-55-125.49-122.83s56.18-122.83,125.49-122.83,125.49,55,125.49,122.83S376.06,516.08,306.75,516.08Z" transform="translate(-6.02 -150.84)"/><rect class="cls-2" y="215.13" width="601.47" height="67.72"/><path class="cls-1" d="M306.75,150.84C163.28,150.84,47,259.37,47,393.25s116.3,242.41,259.77,242.41S566.52,527.13,566.52,393.25,450.22,150.84,306.75,150.84Zm0,424.29c-107,0-193.73-81.43-193.73-181.88s86.74-181.88,193.73-181.88S500.48,292.8,500.48,393.25,413.74,575.13,306.75,575.13Z" transform="translate(-6.02 -150.84)"/><path class="cls-3" d="M118.76,246.84l-3.15,306L420.18,402.11ZM168,326.27l151.46,75.62-153,73.42Z" transform="translate(-6.02 -150.84)"/><path class="cls-3" d="M297.33,247.43,294.9,552.24,529.64,402.1Zm37.92,79.12L452,401.89,334,475Z" transform="translate(-6.02 -150.84)"/></svg>